<?xml version="1.0" encoding="utf-8"?>
<!-- Generator: Adobe Illustrator 15.0.2, SVG Export Plug-In . SVG Version: 6.00 Build 0)  -->
<!DOCTYPE svg PUBLIC "-//W3C//DTD SVG 1.1//EN" "http://www.w3.org/Graphics/SVG/1.1/DTD/svg11.dtd">
<svg version="1.1" id="Layer_1" xmlns="http://www.w3.org/2000/svg" xmlns:xlink="http://www.w3.org/1999/xlink" x="0px" y="0px"
	 width="31px" height="62px" viewBox="0 0 31 62" enable-background="new 0 0 31 62" xml:space="preserve">
<g>
	<path opacity="0.12" fill-rule="evenodd" clip-rule="evenodd" fill="#231F20" d="M15.75,1C23.896,1,30.5,7.604,30.5,15.75
		S23.896,30.5,15.75,30.5C7.604,30.5,1,23.896,1,15.75S7.604,1,15.75,1z"/>
	<path fill="#FFFFFF" d="M17.32,16l4.803-4.802c0.502-0.503,0.502-1.318,0-1.821c-0.504-0.502-1.318-0.502-1.822,0L15.5,14.179
		l-4.802-4.802c-0.503-0.502-1.318-0.502-1.821,0c-0.503,0.503-0.503,1.318,0,1.821L13.679,16l-4.802,4.802
		c-0.503,0.502-0.503,1.318,0,1.82C9.128,22.874,9.458,23,9.788,23s0.659-0.126,0.911-0.377l4.802-4.802l4.801,4.802
		C20.553,22.874,20.883,23,21.213,23c0.328,0,0.658-0.126,0.91-0.377c0.502-0.502,0.502-1.318,0-1.82L17.32,16z"/>
	<g>
		<path opacity="0.45" fill="#231F20" d="M10.698,10.377l4.802,4.802l4.801-4.802c0.504-0.502,1.318-0.502,1.822,0
			c0.121,0.121,0.209,0.262,0.272,0.411c0.197-0.468,0.108-1.029-0.272-1.411c-0.504-0.502-1.318-0.502-1.822,0L15.5,14.179
			l-4.802-4.802c-0.503-0.502-1.318-0.502-1.821,0c-0.382,0.382-0.47,0.942-0.273,1.411c0.063-0.149,0.152-0.29,0.273-0.411
			C9.38,9.875,10.195,9.875,10.698,10.377z"/>
		<path opacity="0.45" fill="#231F20" d="M22.123,21.802c0.121,0.121,0.209,0.262,0.272,0.41c0.197-0.468,0.108-1.029-0.272-1.41
			L17.82,16.5l-0.5,0.5L22.123,21.802z"/>
		<path opacity="0.45" fill="#231F20" d="M13.679,17l-0.5-0.5l-4.302,4.302c-0.382,0.381-0.47,0.942-0.272,1.41
			c0.062-0.148,0.151-0.289,0.272-0.41L13.679,17z"/>
		<path fill="#FFFFFF" d="M22.123,11.198c0.121-0.121,0.209-0.262,0.272-0.411c-0.063-0.149-0.151-0.29-0.272-0.411
			c-0.504-0.502-1.318-0.502-1.822,0L15.5,15.179l-4.802-4.802c-0.503-0.502-1.318-0.502-1.821,0
			c-0.121,0.121-0.21,0.262-0.273,0.411c0.063,0.149,0.152,0.29,0.273,0.411L13.679,16l-0.5,0.5l0.5,0.5l-4.802,4.802
			c-0.121,0.121-0.21,0.262-0.272,0.41c0.062,0.148,0.151,0.289,0.272,0.41C9.128,22.874,9.458,23,9.788,23s0.659-0.126,0.911-0.377
			l4.802-4.802l4.801,4.802C20.553,22.874,20.883,23,21.213,23c0.328,0,0.658-0.126,0.91-0.377c0.121-0.121,0.209-0.262,0.272-0.41
			c-0.063-0.148-0.151-0.289-0.272-0.41L17.32,17l0.5-0.5l-0.5-0.5L22.123,11.198z"/>
	</g>
</g>
<g>
	<path opacity="0.25" fill-rule="evenodd" clip-rule="evenodd" fill="#231F20" d="M15.75,31.5c8.147,0,14.75,6.604,14.75,14.75
		C30.5,54.396,23.896,61,15.75,61C7.604,61,1,54.396,1,46.25C1,38.104,7.604,31.5,15.75,31.5z"/>
	<path fill="#FFFFFF" d="M17.32,46.5l4.803-4.803c0.502-0.502,0.502-1.318,0-1.82c-0.504-0.503-1.318-0.503-1.822,0L15.5,44.679
		l-4.802-4.802c-0.503-0.503-1.318-0.503-1.821,0c-0.503,0.502-0.503,1.318,0,1.82l4.802,4.803l-4.802,4.802
		c-0.503,0.503-0.503,1.317,0,1.82c0.251,0.251,0.581,0.378,0.91,0.378s0.659-0.127,0.911-0.378L15.5,48.32l4.801,4.802
		c0.252,0.251,0.582,0.378,0.912,0.378c0.328,0,0.658-0.127,0.91-0.378c0.502-0.503,0.502-1.317,0-1.82L17.32,46.5z"/>
	<g>
		<path opacity="0.45" fill="#231F20" d="M10.698,40.877l4.802,4.802l4.801-4.802c0.504-0.503,1.318-0.503,1.822,0
			c0.121,0.121,0.209,0.262,0.272,0.41c0.197-0.469,0.108-1.029-0.272-1.41c-0.504-0.503-1.318-0.503-1.822,0L15.5,44.679
			l-4.802-4.802c-0.503-0.503-1.318-0.503-1.821,0c-0.382,0.381-0.47,0.941-0.273,1.41c0.063-0.148,0.152-0.289,0.273-0.41
			C9.38,40.374,10.195,40.374,10.698,40.877z"/>
		<path opacity="0.45" fill="#231F20" d="M22.123,52.302c0.121,0.121,0.209,0.262,0.272,0.41c0.197-0.468,0.108-1.028-0.272-1.41
			L17.82,47l-0.5,0.5L22.123,52.302z"/>
		<path opacity="0.45" fill="#231F20" d="M13.679,47.5l-0.5-0.5l-4.302,4.302c-0.382,0.382-0.47,0.942-0.272,1.41
			c0.062-0.148,0.151-0.289,0.272-0.41L13.679,47.5z"/>
		<path fill="#FFFFFF" d="M22.123,41.697c0.121-0.121,0.209-0.262,0.272-0.41c-0.063-0.148-0.151-0.289-0.272-0.41
			c-0.504-0.503-1.318-0.503-1.822,0L15.5,45.679l-4.802-4.802c-0.503-0.503-1.318-0.503-1.821,0
			c-0.121,0.121-0.21,0.262-0.273,0.41c0.063,0.148,0.152,0.289,0.273,0.41l4.802,4.803l-0.5,0.5l0.5,0.5l-4.802,4.802
			c-0.121,0.121-0.21,0.262-0.272,0.41c0.062,0.148,0.151,0.289,0.272,0.41c0.251,0.251,0.581,0.378,0.91,0.378
			s0.659-0.127,0.911-0.378L15.5,48.32l4.801,4.802c0.252,0.251,0.582,0.378,0.912,0.378c0.328,0,0.658-0.127,0.91-0.378
			c0.121-0.121,0.209-0.262,0.272-0.41c-0.063-0.148-0.151-0.289-0.272-0.41L17.32,47.5l0.5-0.5l-0.5-0.5L22.123,41.697z"/>
	</g>
</g>
</svg>
